# xmcd
#
# Track frame offsets:
#	150
#	13967
#	28073
#	41826
#	54493
#	67361
#	79974
#	93810
#	107400
#	120239
#	132764
#	145854
#	159613
#	173307
#	187103
#	201688
#	215516
#	229174
#	243279
#	257184
#	271550
#	285062
#	298963
#	313438
#
# Disc length: 4371 seconds
#
# Revision: 1398892630
# Processed by: cddbd v1.5.2PL0 Copyright (c) Steve Scherf et al.
# Submitted via: EZCDAudioConverter 7.0.0.1
#
DISCID=66111118
DTITLE=Sonny Boy Williamson - The Bluebird Recordings: 1937-1938
DYEAR=1965
DGENRE=Blues
TTITLE0=Good Morning School Girl
TTITLE1=Blue Bird Blues
TTITLE2=Jackson Blues
TTITLE3=Got The Bottle Up And Gone
TTITLE4=Sugar Mama Blues
TTITLE5=Skinny Woman
TTITLE6=Up The Country Blues
TTITLE7=Worried Me Blues
TTITLE8=Black Gal Blues
TTITLE9=Collector Man Blues
TTITLE10=Frigidaire Blues
TTITLE11=Suzanna Blues
TTITLE12=Early In The Morning
TTITLE13=Project Highway
TTITLE14=My Little Cornelius
TTITLE15=Decoration Blues
TTITLE16=You Can Lead Me
TTITLE17=Moonshine
TTITLE18=Miss Louisa Blues
TTITLE19=Sunny Land
TTITLE20=I'm Tired Of Truckin' My Blues Away
TTITLE21=Down South
TTITLE22=Beauty Parlor
TTITLE23=Until My Love Come Down
EXTD=
EXTT0=
EXTT1=
EXTT2=
EXTT3=
EXTT4=
EXTT5=
EXTT6=
EXTT7=
EXTT8=
EXTT9=
EXTT10=
EXTT11=
EXTT12=
EXTT13=
EXTT14=
EXTT15=
EXTT16=
EXTT17=
EXTT18=
EXTT19=
EXTT20=
EXTT21=
EXTT22=
EXTT23=
PLAYORDER=
